<svg xmlns="http://www.w3.org/2000/svg" width="167" height="181" viewBox="0 0 167 181"><path fill="#fff" fill-opacity=".1" d="M63.23 172.14a1353.64 1353.64 0 0 0-40.65-23.47C8.9 141.08 2.2 129.47 2.46 113.82c.27-15.65.27-31.3 0-46.94C2.2 51.24 8.9 39.62 22.58 32.03A1355.8 1355.8 0 0 0 63.23 8.56c13.42-8.05 26.83-8.05 40.24 0a1355.8 1355.8 0 0 0 40.65 23.47c13.69 7.59 20.4 19.2 20.12 34.85-.27 15.65-.27 31.3 0 46.94.27 15.64-6.43 27.26-20.12 34.85a1353.64 1353.64 0 0 0-40.65 23.47c-13.41 8.05-26.82 8.05-40.24 0z"/><path fill="none" stroke="#fff" stroke-linecap="round" stroke-linejoin="round" stroke-miterlimit="50" stroke-width="4" d="M63.23 172.14a1353.64 1353.64 0 0 0-40.65-23.47C8.9 141.08 2.2 129.47 2.46 113.82c.27-15.65.27-31.3 0-46.94C2.2 51.24 8.9 39.62 22.58 32.03A1355.8 1355.8 0 0 0 63.23 8.56c13.42-8.05 26.83-8.05 40.24 0a1355.8 1355.8 0 0 0 40.65 23.47c13.69 7.59 20.4 19.2 20.12 34.85-.27 15.65-.27 31.3 0 46.94.27 15.64-6.43 27.26-20.12 34.85a1353.64 1353.64 0 0 0-40.65 23.47c-13.41 8.05-26.82 8.05-40.24 0z"/></svg>